<svg xmlns="http://www.w3.org/2000/svg" viewBox="0 0 841.9 595.3">

    <symbol id='icon-arrow' viewBox="0 0 24 24">
       <path d="M4 12L10 6M4 12L10 18M4 12H14.5M20 12H17.5" stroke="#000000" stroke-width="1.5" stroke-linecap="round" stroke-linejoin="round"></path>
    </symbol>

    <symbol id='icon-arrow-next' viewBox="0 0 24 24">
        <path d="M4 12H6.5M20 12L14 6M20 12L14 18M20 12H9.5" stroke="#1C274C" stroke-width="1.5" stroke-linecap="round" stroke-linejoin="round"></path>
    </symbol>

    <symbol id='icon-photo' viewBox="0 0 30 30">
        <path fill-rule="evenodd" clip-rule="evenodd" d="M6.96899 5.8832C6.82644 5.9589 6.66577 6 6.5 6H5C3.34315 6 2 7.34315 2 9V18C2 19.6569 3.34315 21 5 21H19C19.9023 21 20.7115 20.6017 21.2615 19.9713C21.0898 19.9293 20.927 19.8412 20.7929 19.7071L19.7487 18.6629C19.5655 18.8697 19.298 19 19 19H5C4.44772 19 4 18.5523 4 18V9C4 8.44772 4.44772 8 5 8H6.5C7.20173 8 7.87302 7.75448 8.4041 7.31832L6.96899 5.8832ZM9.66393 8.57815C8.07949 9.41694 7 11.0824 7 13C7 15.7614 9.23858 18 12 18C13.9176 18 15.5831 16.9205 16.4219 15.3361L14.8908 13.805C14.539 15.0709 13.378 16 12 16C10.3431 16 9 14.6569 9 13C9 11.622 9.92908 10.461 11.195 10.1092L9.66393 8.57815ZM16.9993 13.0851L11.9149 8.00071C11.9432 8.00024 11.9716 8 12 8C14.7614 8 17 10.2386 17 13C17 13.0284 16.9998 13.0568 16.9993 13.0851ZM20 16.0858V9C20 8.44772 19.5523 8 19 8H17.5C16.5557 8 15.6666 7.55542 15.1 6.8L14.05 5.4C13.8611 5.14819 13.5648 5 13.25 5H10.75C10.4352 5 10.1389 5.14819 9.95 5.4L9.67752 5.76331L8.24895 4.33474L8.35 4.2C8.91656 3.44458 9.80573 3 10.75 3H13.25C14.1943 3 15.0834 3.44458 15.65 4.2L16.7 5.6C16.8889 5.85181 17.1852 6 17.5 6H19C20.6569 6 22 7.34315 22 9V18C22 18.0283 21.9996 18.0565 21.9988 18.0846L20 16.0858Z" fill="#000000" stroke="#000" stroke-width="0.5"></path>
        <path d="M3 3L21 21" fill="#000" stroke="#000" stroke-width="2" stroke-linecap="round" stroke-linejoin="round"></path>
    </symbol>

    <symbol id='icon-rub' viewBox="0 0 24 24">
        <path fill-rule="evenodd" fill="#000" stroke="#000" d="M15,2 C18.3137085,2 21,4.6862915 21,8 C21,11.2383969 18.4344251,13.8775718 15.2249383,13.9958615 L15,14 L10,14 L10,16 L14,16 C14.5522847,16 15,16.4477153 15,17 C15,17.5522847 14.5522847,18 14,18 L10,18 L10,21 C10,21.5522847 9.55228475,22 9,22 C8.44771525,22 8,21.5522847 8,21 L8,18 L4,18 C3.44771525,18 3,17.5522847 3,17 C3,16.4477153 3.44771525,16 4,16 L8,16 L8,14 L4,14 C3.44771525,14 3,13.5522847 3,13 C3,12.4871642 3.38604019,12.0644928 3.88337887,12.0067277 L4,12 L8,12 L8,3 C8,2.44771525 8.44771525,2 9,2 L15,2 Z M15,4 L10,4 L10,12 L15,12 C17.209139,12 19,10.209139 19,8 C19,5.85780461 17.3160315,4.10892112 15.1996403,4.00489531 L15,4 Z"></path>
    </symbol>

    <symbol id='icon-circle' viewBox="0 0 24 24">
        <path fill-rule="evenodd" clip-rule="evenodd" d="M7.31673 3.7687C10.4043 3.42362 13.5957 3.42362 16.6832 3.7687C18.5096 3.97282 19.9845 5.41146 20.1994 7.24843C20.5686 10.4053 20.5686 13.5945 20.1994 16.7515C19.9845 18.5884 18.5096 20.0271 16.6832 20.2312C13.5957 20.5763 10.4043 20.5763 7.31673 20.2312C5.49035 20.0271 4.01545 18.5884 3.8006 16.7515C3.43137 13.5945 3.43137 10.4053 3.8006 7.24843C4.01545 5.41146 5.49035 3.97282 7.31673 3.7687ZM16.5166 5.25942C13.5398 4.92671 10.4602 4.92671 7.48334 5.25942C6.33891 5.38732 5.42286 6.29057 5.29045 7.42268C4.93476 10.4638 4.93476 13.5361 5.29045 16.5772C5.42286 17.7093 6.33891 18.6126 7.48334 18.7405C10.4602 19.0732 13.5398 19.0732 16.5166 18.7405C17.6611 18.6126 18.5771 17.7093 18.7095 16.5772C19.0652 13.5361 19.0652 10.4638 18.7095 7.42268C18.5771 6.29057 17.6611 5.38732 16.5166 5.25942Z" fill="#000000"></path>
    </symbol>

    <symbol id='icon-check' viewBox="0 0 24 24">
        <path d="M7.48334 5.25942C6.33891 5.38732 5.42286 6.29057 5.29045 7.42268C4.93476 10.4638 4.93476 13.5361 5.29045 16.5772C5.42286 17.7093 6.33891 18.6126 7.48334 18.7405C10.4602 19.0732 13.5398 19.0732 16.5166 18.7405C17.6611 18.6126 18.5771 17.7093 18.7095 16.5772C18.9651 14.3921 19.037 12.1909 18.9253 9.99668C18.9224 9.94002 18.9436 9.88475 18.9837 9.84463L20.0225 8.80585C20.1427 8.68562 20.3482 8.7608 20.3609 8.93036C20.557 11.5353 20.5031 14.1543 20.1994 16.7515C19.9845 18.5884 18.5096 20.0271 16.6832 20.2312C13.5957 20.5763 10.4043 20.5763 7.31673 20.2312C5.49035 20.0271 4.01545 18.5884 3.8006 16.7515C3.43137 13.5945 3.43137 10.4053 3.8006 7.24843C4.01545 5.41146 5.49035 3.97282 7.31673 3.7687C10.4043 3.42362 13.5957 3.42362 16.6832 3.7687C17.3265 3.84059 17.9261 4.06562 18.4425 4.40725C18.5441 4.47448 18.5542 4.61732 18.468 4.70346L17.6652 5.50635C17.5995 5.57202 17.4976 5.58307 17.4158 5.5392C17.1423 5.39271 16.8385 5.29539 16.5166 5.25942C13.5398 4.92671 10.4602 4.92671 7.48334 5.25942Z" fill="#000000"></path> <path d="M21.0303 6.03028C21.3232 5.73738 21.3232 5.26251 21.0303 4.96962C20.7374 4.67672 20.2625 4.67672 19.9696 4.96962L11.5 13.4393L9.0303 10.9696C8.73741 10.6767 8.26253 10.6767 7.96964 10.9696C7.67675 11.2625 7.67675 11.7374 7.96964 12.0303L10.9696 15.0303C11.2625 15.3232 11.7374 15.3232 12.0303 15.0303L21.0303 6.03028Z" fill="#000000"></path>
    </symbol>

    <symbol id='icon-cross' viewBox="0 0 24 24">
        <path d="M16 8L8 16M12 12L16 16M8 8L10 10" stroke="#000000" stroke-width="1.5" stroke-linecap="round" stroke-linejoin="round"></path>
    </symbol>

</svg>

